<?xml version='1.0' encoding='utf-8'?>
<svg xmlns="http://www.w3.org/2000/svg" width="300" height="400" viewBox="0 0 300 400" fill="none">

<path d="M150 150C155.307 154.25 158.521 158.08 159.642 161.491C156.478 159.794 153.264 155.964 150 150Z" fill="#4b0082" />
<path d="M150 150C151.333 156.667 151.333 161.667 150 165C148.667 161.667 148.667 156.667 150 150Z" fill="#4b0082" />
<path d="M150 150C146.736 155.964 143.522 159.794 140.358 161.491C141.479 158.08 144.693 154.25 150 150Z" fill="#4b0082" />
<path d="M150 150C143.666 152.471 138.742 153.339 135.228 152.605C138.279 150.713 143.203 149.845 150 150Z" fill="#4b0082" />
<path d="M150 150C143.56 147.821 139.23 145.321 137.01 142.5C140.563 143.012 144.893 145.512 150 150Z" fill="#4b0082" />
<path d="M150 150C146.467 144.191 144.757 139.493 144.87 135.905C147.263 138.581 148.973 143.279 150 150Z" fill="#4b0082" />
<path d="M150 158C154.418 158 158 154.418 158 150C158 145.582 154.418 142 150 142C145.582 142 142 145.582 142 150C142 154.418 145.582 158 150 158Z" fill="#4b0082" />
<circle cx="0.0" cy="0.0" r="0.01" fill="#4b0082" /><circle cx="300.0" cy="400.0" r="0.01" fill="#4b0082" /></svg>