<?xml version='1.0' encoding='utf-8'?>
<svg xmlns="http://www.w3.org/2000/svg" width="300" height="400" viewBox="0 0 300 400" fill="none">

<path d="M150 150C148 140 148 131.667 150 125C152 131.667 152 140 150 150Z" fill="#4169e1" />
<path d="M150 150C154.896 141.054 160.252 134.67 166.07 130.849C163.317 137.241 157.96 143.625 150 150Z" fill="#4169e1" />
<path d="M150 150C159.501 146.294 167.708 144.847 174.62 145.659C168.402 148.786 160.195 150.233 150 150Z" fill="#4169e1" />
<path d="M150 150C159.66 153.268 166.877 157.435 171.651 162.5C164.877 160.899 157.66 156.732 150 150Z" fill="#4169e1" />
<path d="M150 150C155.3 158.713 158.15 166.544 158.55 173.492C154.391 167.912 151.541 160.081 150 150Z" fill="#4169e1" />
<path d="M150 150C148.459 160.081 145.609 167.912 141.45 173.492C141.85 166.544 144.7 158.713 150 150Z" fill="#4169e1" />


<path d="M150 150C142.34 156.732 135.123 160.899 128.349 162.5C133.123 157.435 140.34 153.268 150 150Z" fill="#4169e1" />
<path d="M150 150C139.805 150.233 131.598 148.786 125.38 145.659C132.292 144.847 140.499 146.294 150 150Z" fill="#4169e1" />
<path d="M150 150C142.04 143.625 136.683 137.241 133.93 130.849C139.748 134.67 145.104 141.054 150 150Z" fill="#4169e1" />
<path d="M150 150C151.027 143.279 152.737 138.581 155.13 135.905C155.243 139.493 153.533 144.191 150 150Z" fill="#4169e1" />
<path d="M150 150C155.107 145.512 159.437 143.012 162.99 142.5C160.77 145.321 156.44 147.821 150 150Z" fill="#4169e1" />
<path d="M150 150C156.797 149.845 161.721 150.713 164.772 152.605C161.258 153.339 156.334 152.471 150 150Z" fill="#4169e1" />


<circle cx="0.0" cy="0.0" r="0.01" fill="#4169e1" /><circle cx="300.0" cy="400.0" r="0.01" fill="#4169e1" /></svg>